<?xml version="1.0" encoding="UTF-8"?>
<!DOCTYPE svg PUBLIC "-//W3C//DTD SVG 1.1//EN" "http://www.w3.org/Graphics/SVG/1.1/DTD/svg11.dtd">
<!-- Creator: CorelDRAW 2017 -->
<svg xmlns="http://www.w3.org/2000/svg" xml:space="preserve" width="200px" height="100px" version="1.1" style="shape-rendering:geometricPrecision; text-rendering:geometricPrecision; image-rendering:optimizeQuality; fill-rule:evenodd; clip-rule:evenodd"
viewBox="0 0 200 100"
 xmlns:xlink="http://www.w3.org/1999/xlink"
 enable-background="new 0 0 37.453 31.21">
 <defs>
  <style type="text/css">
   <![CDATA[
    .fil0 {fill:#9D9E9E}
    .fil2 {fill:#EF7F1A}
    .fil1 {fill:#CC681E}
   ]]>
  </style>
 </defs>
 <g id="Слой_x0020_1">
  <metadata id="CorelCorpID_0Corel-Layer"/>
  <g id="_625062304">
   <path class="fil0" d="M37.19 37.8c-0.03,-0.13 -0.07,-0.23 -0.1,-0.32 -0.48,-1.51 -1.41,-3.37 -2.78,-5.57l-0.03 -0.05 -0.01 -0.03 -0.02 -0.02 -0.01 0c-0.62,-1.03 -1.02,-1.72 -1.18,-2.07 -0.3,-0.67 -0.37,-1.36 -0.21,-2.05 0.12,-0.52 0.56,-1.62 1.32,-3.3 0.39,-0.89 0.71,-1.61 0.94,-2.14 1.68,-3.87 2.41,-6.35 2.19,-7.42l-0.09 -0.25c-0.06,-0.15 -0.21,-0.29 -0.45,-0.42 -0.24,-0.12 -0.55,-0.15 -0.93,-0.06l-4.2 0.05c-0.07,-0.04 -0.16,-0.04 -0.29,0.01 -0.13,0.05 -0.19,0.08 -0.19,0.08l-0.07 0.06 -0.06 0.08c-0.05,0.05 -0.1,0.13 -0.16,0.26 -0.06,0.13 -0.11,0.27 -0.15,0.44 -0.45,2.04 -0.97,3.93 -1.56,5.68 -0.36,1.04 -0.69,1.94 -0.99,2.71 -0.3,0.77 -0.55,1.33 -0.75,1.69 -0.21,0.36 -0.39,0.65 -0.56,0.87 -0.16,0.22 -0.29,0.31 -0.38,0.28 -0.08,-0.04 -0.17,-0.07 -0.24,-0.1 -0.14,-0.15 -0.25,-0.36 -0.33,-0.62 -0.08,-0.26 -0.14,-0.59 -0.17,-0.99 -0.03,-0.39 -0.05,-0.73 -0.05,-1.02 0,-0.28 0,-0.69 0.01,-1.21 0.01,-0.52 0.01,-0.87 0.01,-1.06 0,-0.64 0.01,-1.33 0.02,-2.08 0.02,-0.75 0.03,-1.34 0.04,-1.78 0.01,-0.43 0.01,-0.9 0.01,-1.39 0,-0.48 -0.01,-0.86 -0.05,-1.14 -0.03,-0.28 -0.08,-0.55 -0.15,-0.81 -0.07,-0.26 -0.17,-0.46 -0.3,-0.61 -0.13,-0.14 -0.29,-0.25 -0.49,-0.34 -0.51,-0.2 -1.17,-0.31 -1.96,-0.33 -1.81,-0.03 -2.97,0.17 -3.49,0.61 -0.2,0.19 -0.38,0.44 -0.55,0.76 -0.17,0.37 -0.2,0.57 -0.07,0.6 0.58,0.15 0.99,0.52 1.24,1.09l0.08 0.3c0.07,0.22 0.14,0.61 0.21,1.16 0.07,0.56 0.11,1.17 0.13,1.84 0.05,1.23 0.05,2.28 0,3.16 -0.05,0.87 -0.1,1.55 -0.14,2.04 -0.04,0.49 -0.11,0.88 -0.2,1.18 -0.08,0.31 -0.14,0.49 -0.17,0.56 -0.03,0.07 -0.06,0.11 -0.07,0.12 -0.13,0.09 -0.26,0.13 -0.4,0.13 -0.13,0 -0.3,-0.12 -0.49,-0.35 -0.2,-0.24 -0.4,-0.56 -0.61,-0.97 -0.21,-0.41 -0.44,-0.99 -0.7,-1.73 -0.27,-0.74 -0.54,-1.62 -0.82,-2.63l-0.23 -0.73c-0.15,-0.47 -0.35,-1.15 -0.6,-2.05 -0.25,-0.9 -0.48,-1.77 -0.67,-2.61 -0.08,-0.36 -0.19,-0.63 -0.35,-0.81l-0.07 -0.08c-0.05,-0.06 -0.13,-0.13 -0.24,-0.21 -0.1,-0.08 -0.21,-0.13 -0.33,-0.17l-3.99 0.06c-0.41,0 -0.69,0.16 -0.83,0.47l-0.06 0.16c-0.03,0.08 -0.05,0.22 -0.05,0.4 0,0.19 0.03,0.41 0.09,0.68 0.59,2.37 1.22,4.66 1.9,6.86 0.69,2.21 1.28,3.98 1.79,5.33 0.5,1.34 1.02,2.61 1.54,3.8 0.53,1.2 0.87,1.96 1.04,2.3 0.17,0.34 0.31,0.59 0.41,0.76l0.36 0.6c0.23,0.41 0.57,0.89 1.03,1.45 0.45,0.57 0.95,1.12 1.5,1.67 0.55,0.55 1.18,0.99 1.91,1.34 0.73,0.34 1.44,0.48 2.13,0.41l1.68 0c0.34,-0.05 0.59,-0.23 0.77,-0.55l0.06 -0.13c0.03,-0.1 0.07,-0.26 0.1,-0.47 0.04,-0.21 0.06,-0.44 0.06,-0.69 -0.01,-0.72 0.02,-1.37 0.09,-1.95 0.07,-0.58 0.16,-1.02 0.25,-1.32 0.09,-0.29 0.19,-0.54 0.31,-0.74 0.12,-0.2 0.2,-0.32 0.25,-0.36 0.05,-0.05 0.09,-0.08 0.12,-0.09 0.23,-0.14 0.5,-0.01 0.82,0.39 0.31,0.39 0.61,0.88 0.89,1.46 0.27,0.58 0.61,1.23 1,1.96 0.38,0.72 0.73,1.26 1.02,1.61l0.29 0.3c0.19,0.21 0.44,0.39 0.75,0.56 0.32,0.17 0.59,0.21 0.82,0.13l3.73 -0.11c0.37,0 0.66,-0.1 0.86,-0.31 0.2,-0.21 0.33,-0.44 0.36,-0.69 0.04,-0.26 0.05,-0.54 0.01,-0.86 -0.03,-0.32 -0.07,-0.55 -0.1,-0.67l0 0zm0 0z"/>
  </g>
  <g id="_625070592">
   <path class="fil0" d="M87.74 38.96c0,0.84 -0.66,1.52 -1.49,1.52l-6.89 0 0 -10.67 3.52 0 0.52 -4.16 -4.04 0 0 -2.65c0,-1.21 0.33,-2.03 2.03,-2.03l2.16 0 0 -3.72c-0.38,-0.05 -1.66,-0.16 -3.15,-0.16 -3.12,0 -5.25,1.94 -5.25,5.49l0 3.07 -3.52 0 0 4.16 3.52 0 0 10.67 -12.95 0c-0.82,0 -1.49,-0.68 -1.49,-1.52l0 -24.51c0,-0.84 0.67,-1.52 1.49,-1.52l24.05 0c0.83,0 1.49,0.68 1.49,1.52l0 24.51z"/>
  </g>
  <g id="_625065664">
   <g>
    <path class="fil0" d="M134.52 12.83l-20.35 0c-1.75,0 -3.17,1.45 -3.17,3.24l0 20.87c0,1.79 1.42,3.24 3.17,3.24l20.35 0c1.75,0 3.17,-1.45 3.17,-3.24l0 -20.87c0,-1.79 -1.42,-3.24 -3.17,-3.24l0 0zm-4.34 4.27c0,-0.47 0.38,-0.85 0.84,-0.85l2.5 0c0.46,0 0.83,0.38 0.83,0.85l0 2.57c0,0.47 -0.37,0.85 -0.83,0.85l-2.5 0c-0.46,0 -0.84,-0.38 -0.84,-0.85l0 -2.57zm-5.8 4.19c2.83,0 5.13,2.35 5.13,5.25 0,2.9 -2.3,5.24 -5.13,5.24 -2.84,0 -5.14,-2.34 -5.14,-5.24 0,-2.9 2.3,-5.25 5.14,-5.25l0 0zm10.81 15.47c0,0.48 -0.38,0.86 -0.84,0.86l-20.01 0c-0.46,0 -0.84,-0.39 -0.84,-0.86l0 -12.82 3.34 0c-0.43,0.64 -0.58,1.84 -0.58,2.6 0,4.57 3.64,8.3 8.12,8.3 4.47,0 8.11,-3.73 8.11,-8.3 0,-0.76 -0.1,-1.94 -0.64,-2.6l3.34 0 0 12.82 0 0z"/>
   </g>
  </g>
  <g>
   <path class="fil0" d="M184.39 20.26c-0.76,0.46 -1.61,0.8 -2.51,0.98 -0.72,-0.79 -1.74,-1.28 -2.88,-1.28 -2.17,0 -3.94,1.81 -3.94,4.05 0,0.31 0.03,0.62 0.1,0.92 -3.28,-0.17 -6.19,-1.78 -8.13,-4.23 -0.34,0.6 -0.54,1.29 -0.54,2.04 0,1.4 0.7,2.64 1.76,3.36 -0.65,-0.02 -1.26,-0.2 -1.79,-0.5l0 0.05c0,1.96 1.36,3.59 3.17,3.96 -0.33,0.1 -0.68,0.15 -1.04,0.15 -0.26,0 -0.5,-0.03 -0.74,-0.08 0.5,1.61 1.95,2.78 3.68,2.81 -1.35,1.09 -3.05,1.74 -4.9,1.74 -0.32,0 -0.63,-0.02 -0.94,-0.06 1.75,1.15 3.82,1.82 6.05,1.82 7.26,0 11.22,-6.17 11.22,-11.51 0,-0.18 0,-0.36 -0.01,-0.53 0.77,-0.57 1.44,-1.28 1.97,-2.09 -0.71,0.32 -1.47,0.54 -2.27,0.63 0.82,-0.5 1.45,-1.29 1.74,-2.23z"/>
  </g>
  <g>
   <path class="fil1" d="M37.39 87.96c-0.04,-0.13 -0.07,-0.24 -0.1,-0.33 -0.49,-1.53 -1.43,-3.41 -2.82,-5.65l-0.03 -0.05 -0.02 -0.02 -0.01 -0.03 -0.02 0c-0.63,-1.04 -1.03,-1.74 -1.19,-2.1 -0.31,-0.68 -0.38,-1.37 -0.21,-2.07 0.12,-0.53 0.56,-1.65 1.33,-3.35 0.4,-0.91 0.72,-1.63 0.96,-2.18 1.7,-3.92 2.44,-6.43 2.22,-7.52l-0.09 -0.25c-0.06,-0.16 -0.21,-0.3 -0.46,-0.43 -0.25,-0.12 -0.56,-0.15 -0.95,-0.06l-4.25 0.05c-0.07,-0.04 -0.17,-0.04 -0.3,0.01 -0.12,0.05 -0.19,0.08 -0.19,0.08l-0.07 0.06 -0.06 0.08c-0.05,0.05 -0.1,0.14 -0.16,0.27 -0.06,0.13 -0.11,0.28 -0.15,0.45 -0.47,2.06 -0.99,3.98 -1.58,5.75 -0.37,1.06 -0.7,1.98 -1.01,2.75 -0.3,0.78 -0.56,1.35 -0.77,1.72 -0.2,0.37 -0.39,0.66 -0.56,0.88 -0.17,0.22 -0.29,0.32 -0.38,0.28 -0.09,-0.03 -0.17,-0.07 -0.25,-0.1 -0.14,-0.15 -0.25,-0.36 -0.34,-0.63 -0.08,-0.26 -0.14,-0.59 -0.17,-0.99 -0.02,-0.41 -0.04,-0.75 -0.05,-1.04 0,-0.29 0,-0.7 0.01,-1.23 0.01,-0.53 0.02,-0.89 0.02,-1.07 0,-0.65 0,-1.36 0.02,-2.11 0.01,-0.76 0.02,-1.36 0.03,-1.81 0.01,-0.44 0.02,-0.91 0.02,-1.41 0,-0.49 -0.02,-0.88 -0.05,-1.16 -0.04,-0.28 -0.09,-0.55 -0.16,-0.82 -0.07,-0.26 -0.17,-0.47 -0.3,-0.61 -0.13,-0.15 -0.3,-0.26 -0.5,-0.35 -0.52,-0.2 -1.18,-0.31 -1.99,-0.33 -1.83,-0.04 -3.01,0.17 -3.53,0.61 -0.21,0.19 -0.4,0.45 -0.56,0.77 -0.18,0.38 -0.2,0.58 -0.08,0.61 0.59,0.16 1.01,0.52 1.26,1.1l0.09 0.31c0.07,0.22 0.13,0.62 0.2,1.18 0.07,0.56 0.12,1.18 0.14,1.87 0.05,1.24 0.05,2.31 0,3.2 -0.05,0.88 -0.1,1.57 -0.14,2.07 -0.05,0.49 -0.11,0.89 -0.2,1.2 -0.09,0.31 -0.15,0.49 -0.18,0.56 -0.03,0.07 -0.05,0.11 -0.07,0.13 -0.13,0.09 -0.27,0.13 -0.4,0.13 -0.14,0 -0.31,-0.12 -0.51,-0.36 -0.19,-0.24 -0.4,-0.57 -0.61,-0.99 -0.21,-0.41 -0.45,-1 -0.72,-1.75 -0.26,-0.75 -0.54,-1.63 -0.82,-2.66l-0.24 -0.74c-0.15,-0.48 -0.35,-1.17 -0.6,-2.09 -0.26,-0.91 -0.49,-1.79 -0.68,-2.64 -0.08,-0.36 -0.2,-0.63 -0.36,-0.82l-0.07 -0.08c-0.05,-0.07 -0.13,-0.14 -0.24,-0.22 -0.11,-0.07 -0.22,-0.13 -0.34,-0.16l-4.05 0.05c-0.41,0 -0.69,0.16 -0.84,0.48l-0.06 0.16c-0.03,0.08 -0.04,0.22 -0.04,0.41 0,0.18 0.03,0.42 0.08,0.69 0.6,2.4 1.24,4.72 1.93,6.96 0.7,2.23 1.3,4.03 1.81,5.39 0.52,1.37 1.04,2.66 1.57,3.87 0.53,1.21 0.88,1.98 1.06,2.33 0.17,0.34 0.3,0.59 0.4,0.76l0.37 0.62c0.24,0.41 0.59,0.9 1.04,1.47 0.46,0.57 0.97,1.13 1.53,1.69 0.55,0.55 1.2,1.01 1.94,1.35 0.74,0.35 1.46,0.49 2.16,0.43l1.7 0c0.34,-0.05 0.6,-0.24 0.78,-0.57l0.06 -0.12c0.04,-0.11 0.07,-0.26 0.11,-0.48 0.03,-0.21 0.05,-0.45 0.05,-0.7 -0.01,-0.73 0.02,-1.39 0.1,-1.98 0.07,-0.59 0.15,-1.03 0.25,-1.33 0.09,-0.3 0.2,-0.55 0.31,-0.76 0.12,-0.2 0.21,-0.33 0.26,-0.37 0.04,-0.04 0.08,-0.07 0.11,-0.09 0.24,-0.14 0.52,0 0.84,0.4 0.32,0.4 0.62,0.89 0.9,1.48 0.28,0.59 0.62,1.25 1.01,1.98 0.4,0.74 0.74,1.28 1.04,1.64l0.29 0.31c0.2,0.2 0.46,0.39 0.77,0.56 0.32,0.17 0.59,0.22 0.83,0.13l3.78 -0.1c0.37,0 0.67,-0.11 0.87,-0.32 0.21,-0.22 0.33,-0.45 0.37,-0.7 0.04,-0.26 0.04,-0.55 0.01,-0.88 -0.04,-0.32 -0.07,-0.55 -0.1,-0.67l0 0zm0 0z"/>
  </g>
  <g>
   <path class="fil1" d="M87.75 88.96c0,0.84 -0.67,1.52 -1.5,1.52l-6.89 0 0 -10.67 3.52 0 0.52 -4.16 -4.04 0 0 -2.65c0,-1.21 0.33,-2.03 2.03,-2.03l2.16 0 0 -3.72c-0.38,-0.05 -1.66,-0.16 -3.15,-0.16 -3.12,0 -5.25,1.94 -5.25,5.49l0 3.07 -3.52 0 0 4.16 3.52 0 0 10.67 -12.95 0c-0.82,0 -1.49,-0.68 -1.49,-1.52l0 -24.51c0,-0.84 0.67,-1.52 1.49,-1.52l24.05 0c0.83,0 1.5,0.68 1.5,1.52l0 24.51z"/>
  </g>
  <g>
   <g>
    <path class="fil1" d="M134.44 62.93l-20.19 0c-1.74,0 -3.15,1.44 -3.15,3.22l0 20.71c0,1.78 1.41,3.22 3.15,3.22l20.19 0c1.74,0 3.15,-1.44 3.15,-3.22l-0.01 -20.71c0.01,-1.78 -1.4,-3.22 -3.14,-3.22l0 0zm-4.3 4.25c0,-0.47 0.37,-0.85 0.83,-0.85l2.48 0c0.45,0 0.83,0.38 0.83,0.84l0 2.55c0,0.47 -0.38,0.85 -0.83,0.85l-2.48 0c-0.46,0 -0.83,-0.38 -0.83,-0.85l0 -2.54zm-5.76 4.15c2.81,0 5.09,2.33 5.09,5.21 0,2.87 -2.28,5.2 -5.09,5.2 -2.82,0 -5.1,-2.33 -5.1,-5.2 0,-2.88 2.28,-5.21 5.1,-5.21l0 0zm10.72 15.35c0,0.47 -0.37,0.85 -0.83,0.85l-19.85 0c-0.46,0 -0.83,-0.38 -0.83,-0.85l0 -12.72 3.31 0c-0.43,0.64 -0.58,1.82 -0.58,2.58 0,4.54 3.61,8.23 8.06,8.23 4.44,0 8.05,-3.69 8.05,-8.23 0,-0.76 -0.1,-1.93 -0.64,-2.58l3.31 0 0 12.72 0 0z"/>
   </g>
  </g>
  <g>
   <path class="fil2" d="M184.53 70.14c-0.78,0.47 -1.63,0.81 -2.55,0.99 -0.73,-0.79 -1.77,-1.29 -2.92,-1.29 -2.21,0 -4.01,1.84 -4.01,4.11 0,0.32 0.04,0.63 0.11,0.93 -3.33,-0.17 -6.28,-1.8 -8.26,-4.29 -0.35,0.61 -0.54,1.31 -0.54,2.06 0,1.43 0.7,2.69 1.78,3.42 -0.66,-0.02 -1.27,-0.2 -1.81,-0.51l0 0.05c0,1.99 1.38,3.65 3.21,4.03 -0.34,0.1 -0.69,0.14 -1.06,0.14 -0.25,0 -0.51,-0.02 -0.75,-0.07 0.51,1.63 1.99,2.82 3.74,2.85 -1.37,1.11 -3.1,1.76 -4.97,1.76 -0.33,0 -0.65,-0.02 -0.96,-0.05 1.77,1.16 3.88,1.84 6.14,1.84 7.37,0 11.4,-6.26 11.4,-11.69 0,-0.18 0,-0.35 -0.01,-0.53 0.78,-0.58 1.46,-1.3 2,-2.13 -0.72,0.33 -1.49,0.55 -2.3,0.65 0.83,-0.51 1.46,-1.31 1.76,-2.27z"/>
  </g>
 </g>
</svg>
