<?xml version="1.0" encoding="UTF-8"?>
<!DOCTYPE svg PUBLIC "-//W3C//DTD SVG 1.1//EN" "http://www.w3.org/Graphics/SVG/1.1/DTD/svg11.dtd">
<!-- Creator: CorelDRAW 2017 -->
<svg xmlns="http://www.w3.org/2000/svg" xml:space="preserve" width="200px" height="100px" version="1.1" style="shape-rendering:geometricPrecision; text-rendering:geometricPrecision; image-rendering:optimizeQuality; fill-rule:evenodd; clip-rule:evenodd"
viewBox="0 0 200 100"
 xmlns:xlink="http://www.w3.org/1999/xlink"
 enable-background="new 0 0 37.453 31.21">
 <defs>
  <style type="text/css">
   <![CDATA[
    .fil2 {fill:#EF7F1A}
    .fil1 {fill:#CC681E}
    .fil0 {fill:white}
   ]]>
  </style>
 </defs>
 <g id="Слой_x0020_1">
  <metadata id="CorelCorpID_0Corel-Layer"/>
  <g id="_612884160">
   <path class="fil0" d="M39.92 40c-0.04,-0.15 -0.07,-0.28 -0.11,-0.38 -0.58,-1.81 -1.69,-4.04 -3.33,-6.67l-0.04 -0.07 -0.01 -0.03 -0.02 -0.03 -0.02 0c-0.74,-1.22 -1.22,-2.05 -1.41,-2.47 -0.36,-0.81 -0.45,-1.63 -0.25,-2.45 0.14,-0.63 0.67,-1.94 1.57,-3.96 0.48,-1.07 0.86,-1.92 1.14,-2.57 2.01,-4.63 2.88,-7.59 2.61,-8.88l-0.1 -0.3c-0.07,-0.18 -0.25,-0.35 -0.54,-0.5 -0.29,-0.15 -0.66,-0.17 -1.12,-0.07l-5.02 0.06c-0.08,-0.05 -0.2,-0.05 -0.35,0.01 -0.15,0.06 -0.23,0.09 -0.23,0.09l-0.09 0.08 -0.06 0.09c-0.06,0.06 -0.13,0.16 -0.2,0.32 -0.07,0.15 -0.12,0.32 -0.17,0.53 -0.55,2.43 -1.17,4.7 -1.87,6.79 -0.43,1.25 -0.82,2.33 -1.19,3.25 -0.36,0.92 -0.66,1.59 -0.9,2.02 -0.25,0.44 -0.47,0.79 -0.67,1.05 -0.19,0.26 -0.34,0.37 -0.45,0.33 -0.1,-0.04 -0.2,-0.08 -0.3,-0.12 -0.16,-0.18 -0.29,-0.43 -0.39,-0.74 -0.1,-0.31 -0.16,-0.71 -0.2,-1.18 -0.03,-0.47 -0.05,-0.88 -0.06,-1.22 -0.01,-0.35 0,-0.83 0.01,-1.45 0.01,-0.63 0.02,-1.05 0.02,-1.27 0,-0.77 0.01,-1.6 0.02,-2.5 0.02,-0.89 0.04,-1.6 0.05,-2.12 0.01,-0.53 0.01,-1.08 0.01,-1.67 0,-0.58 -0.02,-1.04 -0.06,-1.37 -0.04,-0.33 -0.1,-0.66 -0.18,-0.97 -0.08,-0.31 -0.2,-0.55 -0.36,-0.72 -0.16,-0.17 -0.35,-0.31 -0.58,-0.41 -0.62,-0.24 -1.4,-0.37 -2.36,-0.4 -2.16,-0.04 -3.55,0.21 -4.17,0.73 -0.24,0.22 -0.46,0.52 -0.66,0.91 -0.21,0.44 -0.24,0.68 -0.09,0.72 0.7,0.18 1.19,0.62 1.49,1.3l0.1 0.36c0.08,0.26 0.16,0.73 0.24,1.39 0.08,0.67 0.14,1.4 0.16,2.21 0.06,1.47 0.06,2.73 0,3.78 -0.06,1.04 -0.11,1.86 -0.17,2.44 -0.05,0.59 -0.13,1.06 -0.23,1.42 -0.1,0.36 -0.18,0.58 -0.21,0.67 -0.03,0.08 -0.06,0.13 -0.09,0.15 -0.15,0.1 -0.31,0.15 -0.47,0.15 -0.16,0 -0.36,-0.14 -0.59,-0.43 -0.23,-0.28 -0.47,-0.66 -0.72,-1.16 -0.26,-0.49 -0.54,-1.18 -0.85,-2.07 -0.32,-0.88 -0.64,-1.93 -0.98,-3.14l-0.28 -0.88c-0.17,-0.56 -0.41,-1.38 -0.71,-2.46 -0.31,-1.08 -0.57,-2.12 -0.81,-3.13 -0.09,-0.42 -0.23,-0.74 -0.41,-0.96l-0.09 -0.09c-0.06,-0.08 -0.15,-0.17 -0.28,-0.26 -0.13,-0.09 -0.26,-0.16 -0.4,-0.2l-4.78 0.07c-0.49,0 -0.82,0.19 -1,0.57l-0.07 0.18c-0.03,0.1 -0.05,0.26 -0.05,0.48 0,0.23 0.03,0.5 0.11,0.82 0.69,2.84 1.45,5.58 2.27,8.22 0.82,2.64 1.53,4.76 2.14,6.37 0.6,1.61 1.22,3.13 1.85,4.56 0.63,1.43 1.04,2.35 1.25,2.75 0.2,0.41 0.36,0.71 0.48,0.91l0.43 0.72c0.28,0.49 0.69,1.07 1.23,1.74 0.54,0.68 1.14,1.34 1.8,1.99 0.66,0.66 1.42,1.19 2.3,1.61 0.87,0.41 1.72,0.58 2.54,0.49l2.01 0c0.41,-0.06 0.71,-0.28 0.92,-0.66l0.07 -0.15c0.05,-0.12 0.09,-0.31 0.13,-0.56 0.04,-0.25 0.06,-0.53 0.06,-0.83 -0.01,-0.87 0.03,-1.65 0.12,-2.34 0.08,-0.7 0.18,-1.22 0.29,-1.57 0.11,-0.36 0.24,-0.65 0.38,-0.89 0.14,-0.25 0.24,-0.39 0.3,-0.44 0.05,-0.05 0.1,-0.09 0.14,-0.11 0.27,-0.16 0.6,0 0.98,0.47 0.38,0.48 0.73,1.06 1.07,1.75 0.33,0.7 0.73,1.48 1.19,2.34 0.47,0.87 0.87,1.52 1.22,1.94l0.35 0.36c0.23,0.24 0.54,0.46 0.91,0.67 0.37,0.2 0.7,0.25 0.98,0.15l4.46 -0.12c0.44,0 0.79,-0.13 1.03,-0.38 0.25,-0.25 0.39,-0.53 0.44,-0.83 0.04,-0.3 0.05,-0.65 0.01,-1.03 -0.05,-0.38 -0.09,-0.65 -0.13,-0.8l0 0zm0 0z"/>
  </g>
  <g id="_612889216">
   <path class="fil0" d="M90.23 41.21c0,1 -0.79,1.8 -1.76,1.8l-8.16 0 0 -12.63 4.16 0 0.62 -4.92 -4.78 0 0 -3.15c0,-1.42 0.39,-2.39 2.39,-2.39l2.56 0 0 -4.41c-0.44,-0.06 -1.96,-0.19 -3.73,-0.19 -3.68,0 -6.21,2.29 -6.21,6.51l0 3.63 -4.17 0 0 4.92 4.17 0 0 12.63 -15.33 0c-0.98,0 -1.77,-0.8 -1.77,-1.8l0 -29.02c0,-0.99 0.79,-1.8 1.77,-1.8l28.48 0c0.97,0 1.76,0.81 1.76,1.8l0 29.02z"/>
  </g>
  <g id="_612890208">
   <g>
    <path class="fil0" d="M136.15 10.63l-23.61 0c-2.04,0 -3.68,1.68 -3.68,3.76l0 24.23c0,2.08 1.64,3.76 3.68,3.76l23.61 0c2.04,0 3.68,-1.68 3.68,-3.76l0 -24.23c0.01,-2.08 -1.64,-3.76 -3.68,-3.76l0 0zm-5.03 4.96c0,-0.55 0.44,-0.99 0.97,-0.99l2.91 0c0.53,0 0.96,0.44 0.96,0.99l0 2.98c0,0.55 -0.43,0.99 -0.96,0.99l-2.91 0c-0.53,0 -0.97,-0.44 -0.97,-0.99l0 -2.98zm-6.74 4.86c3.29,0 5.96,2.73 5.96,6.09 0,3.37 -2.67,6.1 -5.96,6.1 -3.29,0 -5.96,-2.73 -5.96,-6.1 0,-3.36 2.67,-6.09 5.96,-6.09l0 0zm12.55 17.96c0,0.55 -0.43,1 -0.97,1l-23.23 0c-0.54,0 -0.97,-0.45 -0.97,-1l0 -14.88 3.87 0c-0.5,0.74 -0.67,2.13 -0.67,3.01 0,5.32 4.23,9.64 9.42,9.64 5.2,0 9.43,-4.32 9.43,-9.64 0,-0.88 -0.13,-2.25 -0.75,-3.01l3.87 0 0 14.88 0 0z"/>
   </g>
  </g>
  <g>
   <path class="fil0" d="M187.49 17.63c-1.03,0.62 -2.16,1.07 -3.37,1.31 -0.96,-1.05 -2.33,-1.71 -3.86,-1.71 -2.91,0 -5.29,2.43 -5.29,5.42 0,0.43 0.05,0.84 0.14,1.24 -4.39,-0.23 -8.29,-2.38 -10.9,-5.67 -0.46,0.8 -0.72,1.74 -0.72,2.73 0,1.88 0.93,3.54 2.35,4.51 -0.86,-0.02 -1.68,-0.27 -2.39,-0.67l0 0.07c0,2.62 1.82,4.82 4.24,5.31 -0.44,0.13 -0.91,0.19 -1.39,0.19 -0.34,0 -0.68,-0.03 -1,-0.09 0.68,2.15 2.63,3.72 4.95,3.76 -1.82,1.46 -4.1,2.33 -6.58,2.33 -0.42,0 -0.84,-0.03 -1.26,-0.08 2.34,1.54 5.12,2.44 8.11,2.44 9.73,0 15.05,-8.27 15.05,-15.44 0,-0.23 0,-0.47 -0.01,-0.7 1.03,-0.76 1.93,-1.72 2.64,-2.81 -0.95,0.43 -1.97,0.73 -3.04,0.86 1.09,-0.67 1.93,-1.74 2.33,-3z"/>
  </g>
  <g>
   <path class="fil1" d="M39.87 89.96c-0.04,-0.15 -0.07,-0.28 -0.11,-0.38 -0.58,-1.81 -1.69,-4.02 -3.32,-6.65l-0.04 -0.07 -0.01 -0.03 -0.02 -0.02 -0.02 0c-0.74,-1.23 -1.21,-2.05 -1.41,-2.47 -0.36,-0.81 -0.44,-1.62 -0.24,-2.44 0.14,-0.63 0.66,-1.94 1.56,-3.95 0.48,-1.06 0.86,-1.92 1.13,-2.56 2.01,-4.62 2.88,-7.57 2.61,-8.85l-0.1 -0.3c-0.07,-0.18 -0.25,-0.35 -0.54,-0.5 -0.29,-0.15 -0.66,-0.18 -1.11,-0.08l-5.01 0.06c-0.08,-0.05 -0.2,-0.04 -0.35,0.02 -0.15,0.06 -0.23,0.09 -0.23,0.09l-0.08 0.08 -0.07 0.09c-0.06,0.05 -0.13,0.16 -0.19,0.31 -0.07,0.15 -0.13,0.33 -0.18,0.53 -0.54,2.43 -1.16,4.69 -1.86,6.77 -0.43,1.25 -0.82,2.33 -1.18,3.24 -0.36,0.92 -0.66,1.59 -0.91,2.02 -0.24,0.43 -0.46,0.78 -0.66,1.04 -0.2,0.26 -0.35,0.37 -0.45,0.33 -0.1,-0.04 -0.2,-0.08 -0.3,-0.12 -0.16,-0.18 -0.29,-0.43 -0.39,-0.74 -0.1,-0.31 -0.16,-0.7 -0.2,-1.17 -0.03,-0.48 -0.05,-0.88 -0.06,-1.22 0,-0.34 0,-0.83 0.01,-1.45 0.01,-0.62 0.02,-1.04 0.02,-1.26 0,-0.77 0.01,-1.59 0.02,-2.49 0.02,-0.89 0.04,-1.6 0.05,-2.12 0.01,-0.52 0.02,-1.08 0.02,-1.66 0,-0.58 -0.03,-1.04 -0.07,-1.37 -0.04,-0.33 -0.1,-0.65 -0.18,-0.96 -0.08,-0.31 -0.2,-0.55 -0.36,-0.72 -0.15,-0.18 -0.35,-0.31 -0.58,-0.41 -0.61,-0.24 -1.4,-0.37 -2.35,-0.39 -2.15,-0.04 -3.54,0.2 -4.15,0.72 -0.25,0.22 -0.47,0.52 -0.66,0.9 -0.21,0.44 -0.24,0.69 -0.09,0.72 0.69,0.19 1.19,0.62 1.48,1.3l0.1 0.36c0.08,0.26 0.16,0.72 0.24,1.39 0.09,0.66 0.14,1.39 0.16,2.2 0.06,1.46 0.06,2.72 0,3.76 -0.06,1.04 -0.11,1.86 -0.16,2.44 -0.06,0.58 -0.13,1.05 -0.24,1.42 -0.1,0.36 -0.17,0.58 -0.21,0.66 -0.03,0.08 -0.06,0.13 -0.08,0.15 -0.15,0.1 -0.31,0.15 -0.47,0.15 -0.17,0 -0.36,-0.14 -0.6,-0.42 -0.23,-0.28 -0.47,-0.67 -0.72,-1.16 -0.25,-0.49 -0.53,-1.18 -0.84,-2.07 -0.31,-0.88 -0.64,-1.92 -0.97,-3.13l-0.28 -0.87c-0.18,-0.56 -0.41,-1.38 -0.72,-2.46 -0.3,-1.07 -0.56,-2.11 -0.8,-3.11 -0.09,-0.42 -0.23,-0.74 -0.41,-0.97l-0.09 -0.09c-0.06,-0.08 -0.15,-0.16 -0.28,-0.25 -0.13,-0.09 -0.26,-0.16 -0.4,-0.2l-4.76 0.06c-0.49,0 -0.82,0.19 -1,0.57l-0.07 0.18c-0.03,0.11 -0.05,0.27 -0.05,0.49 0,0.22 0.04,0.49 0.11,0.81 0.69,2.83 1.45,5.56 2.27,8.19 0.81,2.63 1.52,4.75 2.13,6.36 0.6,1.6 1.21,3.12 1.84,4.54 0.63,1.43 1.04,2.34 1.24,2.75 0.21,0.4 0.37,0.7 0.48,0.9l0.44 0.72c0.28,0.48 0.68,1.06 1.22,1.73 0.54,0.68 1.14,1.34 1.8,1.99 0.65,0.65 1.41,1.19 2.28,1.6 0.87,0.41 1.72,0.57 2.54,0.49l2 0c0.41,-0.06 0.72,-0.28 0.92,-0.66l0.07 -0.15c0.05,-0.12 0.09,-0.31 0.13,-0.56 0.04,-0.25 0.07,-0.52 0.07,-0.83 -0.02,-0.86 0.02,-1.64 0.11,-2.33 0.08,-0.69 0.18,-1.21 0.29,-1.56 0.11,-0.36 0.24,-0.65 0.38,-0.89 0.14,-0.24 0.24,-0.39 0.29,-0.44 0.06,-0.05 0.11,-0.08 0.14,-0.11 0.28,-0.16 0.61,0 0.99,0.47 0.37,0.48 0.73,1.06 1.06,1.75 0.33,0.69 0.72,1.47 1.19,2.33 0.46,0.87 0.87,1.51 1.22,1.93l0.34 0.36c0.24,0.24 0.54,0.46 0.91,0.67 0.37,0.2 0.69,0.25 0.97,0.15l4.46 -0.12c0.44,0 0.78,-0.13 1.02,-0.38 0.25,-0.25 0.39,-0.53 0.44,-0.83 0.04,-0.3 0.04,-0.64 0.01,-1.02 -0.05,-0.38 -0.09,-0.65 -0.13,-0.8l0 0zm0 0z"/>
  </g>
  <g>
   <path class="fil1" d="M90.43 91.39c0,1 -0.8,1.82 -1.79,1.82l-8.26 0 0 -12.78 4.21 0 0.63 -4.99 -4.84 0 0 -3.18c0,-1.44 0.39,-2.42 2.43,-2.42l2.58 0 0 -4.46c-0.44,-0.06 -1.98,-0.2 -3.77,-0.2 -3.73,0 -6.29,2.32 -6.29,6.59l0 3.67 -4.22 0 0 4.99 4.22 0 0 12.78 -15.51 0c-0.99,0 -1.79,-0.82 -1.79,-1.82l0 -29.37c0,-1.01 0.8,-1.82 1.79,-1.82l28.82 0c0.99,0 1.79,0.81 1.79,1.82l0 29.37z"/>
  </g>
  <g>
   <g>
    <path class="fil1" d="M137.06 59.41l-25.43 0c-2.19,0 -3.96,1.82 -3.96,4.06l0 26.08c0,2.23 1.77,4.05 3.96,4.05l25.43 0c2.19,0 3.96,-1.81 3.96,-4.05l0 -26.08c0,-2.24 -1.77,-4.06 -3.96,-4.06l0 0zm-5.42 5.34c0,-0.59 0.47,-1.07 1.04,-1.07l3.13 0c0.58,0 1.04,0.48 1.04,1.07l0 3.21c0,0.59 -0.46,1.07 -1.04,1.07l-3.13 0c-0.57,0 -1.04,-0.48 -1.04,-1.07l0 -3.21zm-7.26 5.24c3.55,0 6.42,2.93 6.42,6.56 0,3.62 -2.87,6.55 -6.42,6.55 -3.54,0 -6.41,-2.93 -6.41,-6.55 0,-3.63 2.87,-6.56 6.41,-6.56l0 0zm13.52 19.34c0,0.59 -0.47,1.07 -1.05,1.07l-25.01 0c-0.58,0 -1.04,-0.48 -1.04,-1.07l0 -16.03 4.16 0c-0.54,0.8 -0.72,2.3 -0.72,3.25 0,5.72 4.55,10.37 10.14,10.37 5.6,0 10.15,-4.65 10.15,-10.37 0,-0.95 -0.13,-2.43 -0.8,-3.25l4.16 0 0 16.03 0.01 0z"/>
   </g>
  </g>
  <g>
   <path class="fil2" d="M187.49 67.63c-1.03,0.62 -2.16,1.07 -3.37,1.31 -0.96,-1.05 -2.33,-1.71 -3.86,-1.71 -2.91,0 -5.29,2.43 -5.29,5.42 0,0.43 0.05,0.84 0.14,1.24 -4.39,-0.23 -8.29,-2.38 -10.9,-5.67 -0.46,0.8 -0.72,1.74 -0.72,2.73 0,1.88 0.93,3.54 2.35,4.51 -0.86,-0.02 -1.68,-0.27 -2.39,-0.67l0 0.07c0,2.62 1.82,4.82 4.24,5.31 -0.44,0.13 -0.91,0.19 -1.39,0.19 -0.34,0 -0.68,-0.03 -1,-0.09 0.68,2.15 2.63,3.72 4.95,3.76 -1.82,1.46 -4.1,2.33 -6.58,2.33 -0.42,0 -0.84,-0.03 -1.26,-0.08 2.34,1.54 5.12,2.44 8.11,2.44 9.73,0 15.05,-8.27 15.05,-15.44 0,-0.23 0,-0.47 -0.01,-0.7 1.03,-0.76 1.93,-1.72 2.64,-2.81 -0.95,0.43 -1.97,0.73 -3.04,0.86 1.09,-0.67 1.93,-1.74 2.33,-3z"/>
  </g>
 </g>
</svg>
